<svg width="100" height="100" viewBox="0 0 100 100" fill="none" xmlns="http://www.w3.org/2000/svg">
<g clip-path="url(#clip0_79_43)">
<path d="M76.6666 23.3335C63.8 23.3335 53.3332 33.8001 53.3332 46.6669C53.3332 59.5337 63.8 70.0001 76.6666 70.0001C89.5332 70.0001 100 59.5335 100 46.6667C100 33.7999 89.5334 23.3335 76.6666 23.3335ZM76.6666 66.6667C65.6383 66.6667 56.6666 57.695 56.6666 46.6667C56.6666 35.6384 65.6383 26.6667 76.6666 26.6667C87.6949 26.6667 96.6666 35.6384 96.6666 46.6667C96.6666 57.695 87.6949 66.6667 76.6666 66.6667Z" fill="#FA6233" stroke="#FA6233" stroke-width="0.195312"/>
<path d="M76.6666 38.3335C78.5049 38.3335 80 39.8284 80 41.6669C80 42.5868 80.7467 43.3335 81.6666 43.3335C82.5865 43.3335 83.3332 42.5868 83.3332 41.6669C83.3332 38.5702 81.1998 35.9819 78.3332 35.2368V35.0001C78.3332 34.0802 77.5865 33.3335 76.6666 33.3335C75.7467 33.3335 75 34.0802 75 35.0001V35.2368C72.1334 35.9817 70 38.5702 70 41.6669C70 45.3437 72.99 48.3335 76.6666 48.3335C78.5049 48.3335 80 49.8284 80 51.6669C80 53.5052 78.5051 55.0003 76.6666 55.0003C74.8283 55.0003 73.3332 53.5054 73.3332 51.6669C73.3332 50.747 72.5865 50.0003 71.6666 50.0003C70.7467 50.0003 70 50.747 70 51.6669C70 54.7636 72.1334 57.3519 75 58.097V58.3337C75 59.2536 75.7467 60.0003 76.6666 60.0003C77.5865 60.0003 78.3332 59.2536 78.3332 58.3337V58.097C81.1998 57.352 83.3332 54.7636 83.3332 51.6669C83.3332 47.9901 80.3432 45.0003 76.6666 45.0003C74.8283 45.0003 73.3332 43.5054 73.3332 41.6669C73.3334 39.8284 74.8283 38.3335 76.6666 38.3335Z" fill="#FA6233" stroke="#FA6233" stroke-width="0.195312"/>
<path d="M23.3334 20C24.2533 20 25 19.2533 25 18.3334V11.6666C25 7.07168 28.7383 3.3332 33.3334 3.3332H66.6668C71.2617 3.3332 75.0002 7.07148 75.0002 11.6666V18.3332C75.0002 19.2531 75.7469 19.9998 76.6668 19.9998C77.5867 19.9998 78.3334 19.2531 78.3334 18.3332V11.6666C78.3334 5.2334 73.1 0 66.6666 0H33.3334C26.9 0 21.6668 5.2334 21.6668 11.6666V18.3332C21.6666 19.2533 22.4133 20 23.3334 20Z" fill="#FA6233" stroke="#FA6233" stroke-width="0.195312"/>
<path d="M23.3334 23.3335C10.4666 23.3335 0 33.8001 0 46.6667V76.6667C0 89.5335 10.4666 100 23.3334 100C36.2002 100 46.6668 89.5335 46.6668 76.6667V61.6667C46.6668 60.7468 45.9201 60.0001 45.0002 60.0001C44.0803 60.0001 43.3336 60.7468 43.3336 61.6667V76.6667C43.3336 87.695 34.3619 96.6667 23.3336 96.6667C12.3053 96.6667 3.33359 87.695 3.33359 76.6667V46.6667C3.33359 36.2017 11.4186 27.6034 21.667 26.7517V53.3333H8.3334C7.41348 53.3333 6.6668 54.08 6.6668 54.9999C6.6668 55.9198 7.41348 56.6665 8.3334 56.6665H45C45.9199 56.6665 46.6666 55.9198 46.6666 54.9999V46.6665C46.6666 33.8001 36.2 23.3335 23.3334 23.3335ZM43.3334 53.3335H25V26.7519C35.2482 27.6036 43.3334 36.2019 43.3334 46.6669V53.3335Z" fill="#FA6233" stroke="#FA6233" stroke-width="0.195312"/>
</g>
<defs>
<clipPath id="clip0_79_43">
<rect width="100" height="100" fill="white"/>
</clipPath>
</defs>
</svg>
