<svg width="100" height="100" viewBox="0 0 100 100" fill="none" xmlns="http://www.w3.org/2000/svg">
<g clip-path="url(#clip0_79_25)">
<path d="M98.3333 85L91.6667 78.3333V14.5833C91.6667 13.75 91.25 12.9167 90.4167 12.5L61.25 0C60.8333 0 60 0 59.5833 0L31.25 12.5L2.91667 0C2.08333 0 1.66667 0 0.833333 0.416667C0.416667 0.833333 0 1.25 0 2.08333V85.4167C0 86.25 0.416667 87.0833 1.25 87.5L30.4167 100C30.8333 100 30.8333 100 31.25 100C31.6667 100 31.6667 100 32.0833 100L60.4167 87.9167L88.75 100C89.5833 100.417 90 100 90.8333 100C91.25 99.5833 91.6667 99.1667 91.6667 98.3333V95.8333C92.0833 95.8333 92.9167 96.25 93.3333 96.25C95 96.25 96.6667 95.8333 97.9167 94.5833L98.3333 94.1667C100.417 91.25 100.417 87.0833 98.3333 85ZM29.1667 94.5833L4.16667 83.75V70.8333H29.1667V94.5833ZM29.1667 66.6667H4.16667V34.5833L29.1667 49.1667V66.6667ZM29.1667 44.1667L4.16667 29.5833V5.41667L29.1667 16.25V44.1667ZM62.5 5.41667L70.4167 8.75L67.5 16.6667C67.5 17.0833 67.0833 17.5 66.6667 17.9167L62.5 19.5833V5.41667ZM62.5 24.1667L68.3333 21.25C69.5833 20.8333 70.8333 19.5833 71.25 17.9167L74.1667 10L87.5 15.8333V60.8333L82.9167 58.3333C82.9167 57.5 83.3333 56.6667 83.3333 56.25C83.3333 44.1667 74.1667 34.5833 62.5 33.3333V24.1667ZM82.0833 75L77.9167 70.8333C80 68.3333 81.25 65.8333 82.0833 62.9167L87.5 65.8333V75C85.8333 74.1667 83.75 74.1667 82.0833 75ZM45.8333 10.4167L58.3333 5V21.25L48.75 25.8333C47.9167 26.25 47.0833 25.8333 46.6667 25.8333C46.25 25.8333 45.8333 25 45.8333 24.1667V10.4167ZM33.3333 15.8333L41.6667 12.5V24.5833C41.6667 26.6667 42.9167 28.75 44.5833 30C45.4167 30.4167 46.6667 30.8333 47.9167 30.8333C48.75 30.8333 50 30.4167 50.8333 30L58.3333 26.25V33.3333C50.4167 34.1667 43.3333 38.75 40 45.8333H33.3333V15.8333ZM33.3333 50H38.3333C37.9167 52.0833 37.5 54.1667 37.5 56.25C37.5 60 38.3333 63.3333 40 66.6667H33.3333V50ZM58.3333 84.1667L33.3333 95V70.8333H42.9167C46.6667 75.4167 52.0833 78.3333 58.3333 79.1667V84.1667ZM41.6667 56.25C41.6667 45.8333 50 37.5 60.4167 37.5C70.8333 37.5 79.1667 45.8333 79.1667 56.25C79.1667 66.6667 70.8333 75 60.4167 75C50 75 41.6667 66.6667 41.6667 56.25ZM87.5 94.5833L62.5 83.75V79.1667C67.0833 78.75 71.6667 76.6667 75 73.75L79.1667 77.9167C77.9167 80.4167 78.3333 83.3333 80 85L87.0833 92.0833V94.5833H87.5ZM95.4167 90.8333C94.1667 92.0833 92.9167 92.0833 92.0833 91.25L83.3333 82.5C82.5 81.6667 82.5 80.4167 83.3333 79.5833L83.75 79.1667C84.1667 78.75 84.5833 78.75 85.4167 78.75C86.25 78.75 86.6667 78.75 87.0833 79.1667L95.8333 87.9167C95.8333 88.75 95.8333 90 95.4167 90.8333Z" fill="#FA6233" stroke="#FA6233" stroke-width="0.001"/>
</g>
<defs>
<clipPath id="clip0_79_25">
<rect width="100" height="100" fill="white"/>
</clipPath>
</defs>
</svg>
