<svg width="100" height="100" viewBox="0 0 100 100" fill="none" xmlns="http://www.w3.org/2000/svg">
<g clip-path="url(#clip0_79_28)">
<path d="M66.129 43.5488V40.6148L67.7128 40.5518C66.9806 22.3342 52.1161 8.0647 33.871 8.0647C15.1951 8.06504 0 23.2585 0 41.9357C0 60.068 14.3339 74.8743 32.258 75.7242V87.0969C32.258 89.7645 34.4288 91.9357 37.0968 91.9357H51.6127C54.2804 91.9357 56.4516 89.7649 56.4516 87.0969V59.6774C56.4516 57.0097 54.2808 54.8386 51.6127 54.8386H50.8853C51.9193 51.321 52.4998 47.5402 52.6257 43.5484L66.129 43.5488ZM23.3596 59.3922C24.2353 60.6471 25.6839 61.4729 27.3258 61.4729C29.658 61.4729 31.608 59.8147 32.0629 57.6164C32.1275 57.6133 32.1919 57.6098 32.2566 57.6067V59.6778V71.3711C29.6694 69.6115 25.4065 66.0017 22.263 59.8195C22.6274 59.6712 22.9917 59.5257 23.3596 59.3922ZM25.7128 56.6336C25.7128 55.7449 26.4353 55.0206 27.3258 55.0206C28.2163 55.0206 28.9389 55.7449 28.9389 56.6336C28.9389 57.5224 28.2163 58.2467 27.3258 58.2467C26.4353 58.2471 25.7128 57.5228 25.7128 56.6336ZM27.6482 71.9437C22.4144 70.8598 17.6839 68.4196 13.7933 65.0324C15.4821 63.5663 17.3336 62.2952 19.2949 61.231C21.7837 66.1885 24.9548 69.6531 27.6482 71.9437ZM32.258 54.3809C32.0388 54.3906 31.8192 54.3988 31.5997 54.4133C30.7918 52.8649 29.1901 51.7955 27.3255 51.7955C24.7834 51.7955 22.7141 53.7729 22.5238 56.2679C21.9915 56.4582 21.464 56.6615 20.94 56.8793C19.4965 53.2131 18.4866 48.805 18.3125 43.5505H32.258V54.3809ZM18.3256 40.323C18.4835 35.481 19.3579 31.0262 20.9352 27.0038C24.5012 28.4796 28.3237 29.3071 32.2576 29.4926V40.3233L18.3256 40.323ZM35.4837 12.5003C38.0757 14.2551 42.3513 17.8584 45.4997 24.0567C42.3417 25.3536 38.9611 26.0858 35.4837 26.2664V12.5003ZM40.0563 11.9164C45.3129 12.9841 50.0578 15.4068 53.9563 18.7874C52.2352 20.2873 50.3854 21.5924 48.4145 22.6601C45.9143 17.6826 42.745 14.207 40.0563 11.9164ZM22.529 17.8924C22.529 17.0037 23.2515 16.2794 24.142 16.2794C25.0325 16.2794 25.7551 17.0037 25.7551 17.8924C25.7551 18.7812 25.0325 19.5055 24.142 19.5055C23.2515 19.5052 22.529 18.7826 22.529 17.8924ZM26.0517 13.4503C25.4647 13.1971 24.8209 13.0553 24.142 13.0553C23.9435 13.0553 23.7566 13.0907 23.5646 13.1135C24.9162 12.628 26.297 12.2037 27.7274 11.9119C27.1837 12.373 26.6243 12.8891 26.0517 13.4503ZM19.3032 17.8924C19.3032 19.0069 19.6982 20.023 20.3337 20.8423C19.9869 21.4407 19.6483 22.0456 19.3352 22.6649C17.3722 21.6037 15.5303 20.3069 13.8157 18.8167C16.0333 16.8908 18.5255 15.2812 21.2318 14.0504C20.0677 14.9344 19.3032 16.3196 19.3032 17.8924ZM23.0451 22.5954C23.3985 22.6776 23.7628 22.7323 24.142 22.7323C26.8097 22.7323 28.9809 20.5615 28.9809 17.8938C28.9809 17.0825 28.7617 16.3276 28.4066 15.6552C29.8421 14.2665 31.192 13.2198 32.2583 12.4989V26.2682C28.7824 26.0875 25.4017 25.3553 22.2437 24.0584C22.4952 23.5602 22.7695 23.0761 23.0451 22.5954ZM35.4837 29.4922C39.4177 29.3068 43.2387 28.4792 46.8048 27.0035C47.1775 27.9535 47.5178 28.9551 47.8257 30.0066C46.5275 30.8761 45.6693 32.3533 45.6693 34.0293C45.6693 36.2938 47.2404 38.1859 49.3452 38.7099C49.3806 39.2422 49.4099 39.7776 49.4274 40.3213H35.4837V29.4922ZM50.5065 35.6438C49.616 35.6438 48.8934 34.9195 48.8934 34.0307C48.8934 33.1419 49.616 32.4176 50.5065 32.4176C51.3966 32.4176 52.1196 33.1419 52.1196 34.0307C52.1196 34.9191 51.3966 35.6438 50.5065 35.6438ZM52.5548 38.3989C54.1985 37.6247 55.3467 35.9652 55.3467 34.0311C55.3467 31.5182 53.413 29.4699 50.9597 29.2376C50.5935 27.9666 50.1855 26.7619 49.7337 25.6247C52.0755 24.3795 54.2629 22.8249 56.2868 21.0312C61.0369 26.1216 64.0738 32.8361 64.4609 40.323H52.6543C52.6322 39.673 52.5982 39.0341 52.5548 38.3989ZM11.4952 21.0649C13.5081 22.8438 15.6837 24.3874 18.0115 25.6247C16.2387 30.07 15.2646 34.9876 15.1019 40.323H3.30803C3.69685 32.8956 6.72755 26.1729 11.4952 21.0649ZM3.30803 43.5488H15.0888C15.2646 49.368 16.3743 54.2374 17.9743 58.2746C15.6452 59.5181 13.4599 61.0341 11.4759 62.7842C6.71929 57.6776 3.69685 50.9648 3.30803 43.5488ZM53.2258 59.6778V87.0972C53.2258 87.986 52.5032 88.7103 51.6127 88.7103H37.0965C36.206 88.7103 35.4834 87.986 35.4834 87.0972V74.194V59.6778C35.4834 58.789 36.206 58.0647 37.0965 58.0647H51.6127C52.5032 58.0647 53.2258 58.7886 53.2258 59.6778ZM47.513 54.8389H37.0968C36.5291 54.8389 35.9902 54.9549 35.4837 55.1358V43.5488H49.3999C49.2661 47.5777 48.6336 51.3599 47.513 54.8389Z" fill="#FA6233" stroke="#FA6233" stroke-width="0.00290626"/>
<path d="M50 82.2583H38.7095V85.4841H50V82.2583Z" fill="#FA6233" stroke="#FA6233" stroke-width="0.00290626"/>
<path d="M63.225 87.6887L63.2241 87.6874C62.1562 86.0893 60.3765 85.1203 58.4516 85.0976V61.2719C62.1669 60.1721 64.9032 56.7572 64.9032 52.6649V44.3553C64.9032 41.4582 67.2642 39.0972 70.1613 39.0972C73.0585 39.0972 75.4194 41.4582 75.4194 44.3553V54.5068C75.4194 56.6839 77.1875 58.4519 79.3646 58.4519H91.1887C94.9435 58.4519 97.9997 61.5079 98 65.2633C98 65.2633 98 65.2634 98 65.2634V83.1244C98 86.8796 94.9437 89.9357 91.1887 89.9357H67.4241C65.732 89.9357 64.1639 89.0961 63.225 87.6887ZM58.4236 59.3318C58.4235 59.3313 58.4235 59.3314 58.4236 59.332L58.4236 59.3318Z" stroke="#FA6233" stroke-width="4"/>
</g>
<defs>
<clipPath id="clip0_79_28">
<rect width="100" height="100" fill="white"/>
</clipPath>
</defs>
</svg>
