<svg width="100" height="100" viewBox="0 0 100 100" fill="none" xmlns="http://www.w3.org/2000/svg">
<path d="M93.75 50C93.75 74.15 74.1719 93.75 50 93.75C25.8281 93.75 6.25 74.15 6.25 50C6.25 25.8281 25.8281 6.25 50 6.25C74.1719 6.25 93.75 25.8281 93.75 50Z" fill="white" stroke="#FA6233" stroke-width="2"/>
<path d="M22.1437 65.1231H26.9221V42.9509H22.1437V65.1231ZM24.5233 40.0434C26.0009 40.0434 27.1907 38.7884 27.1907 37.2197C27.1907 35.6091 26.0009 34.375 24.5233 34.375C23.0648 34.375 21.875 35.6091 21.875 37.2197C21.875 38.7884 23.0648 40.0434 24.5233 40.0434Z" fill="white" stroke="#FA6233" stroke-width="2"/>
<path d="M43.6178 34.4377C35.5384 34.4377 30.4723 40.4409 30.4723 50.0418C30.4723 59.6427 35.5384 65.6249 43.6178 65.6249C51.6775 65.6249 56.7438 59.6427 56.7438 50.0418C56.7438 40.4409 51.6775 34.4377 43.6178 34.4377ZM43.6178 39.0393C48.5497 39.0393 51.6969 43.3065 51.6969 50.0418C51.6969 56.7562 48.5497 61.0231 43.6178 61.0231C38.6666 61.0231 35.5384 56.7562 35.5384 50.0418C35.5384 43.3065 38.6666 39.0393 43.6178 39.0393Z" fill="white" stroke="#FA6233" stroke-width="2"/>
<path d="M59.565 56.6306C59.7759 62.1946 63.9594 65.6249 70.3306 65.6249C77.0281 65.6249 81.25 62.0271 81.25 56.2959C81.25 51.7987 78.8703 49.2677 73.2475 47.8665L70.0619 47.0715C66.6653 46.1931 65.2644 45.0218 65.2644 43.0137C65.2644 40.5037 67.3753 38.8302 70.5034 38.8302C73.6697 38.8302 75.8384 40.5246 76.0687 43.3484H80.7894C80.6744 38.0356 76.6444 34.4377 70.5419 34.4377C64.5159 34.4377 60.2366 38.0562 60.2366 43.4112C60.2366 47.7199 62.6547 50.3974 67.7591 51.6734L71.3478 52.5937C74.8403 53.4931 76.2606 54.7481 76.2606 56.9234C76.2606 59.4334 73.9384 61.2324 70.5994 61.2324C67.2219 61.2324 64.6694 59.4124 64.3625 56.6306H59.565Z" fill="white" stroke="#FA6233" stroke-width="2"/>
</svg>
