<svg width="100" height="100" viewBox="0 0 100 100" fill="none" xmlns="http://www.w3.org/2000/svg">
<path d="M12.5 75H87.5" stroke="#FA6223" stroke-width="2" stroke-miterlimit="10" stroke-linecap="round" stroke-linejoin="round"/>
<path d="M50 6.25L31.25 15.625L50 25L68.75 15.625L50 6.25Z" stroke="#FA6223" stroke-width="2" stroke-miterlimit="10" stroke-linecap="round" stroke-linejoin="round"/>
<path d="M31.25 15.625V37.5L50 46.875L68.75 37.5V15.625" stroke="#FA6223" stroke-width="2" stroke-miterlimit="10" stroke-linecap="round" stroke-linejoin="round"/>
<path d="M50 25V46.875" stroke="#FA6223" stroke-width="2" stroke-miterlimit="10" stroke-linecap="round" stroke-linejoin="round"/>
<path d="M89.0625 73.125L76.875 58.4375C75.625 56.875 74.0625 56.25 72.1875 56.25H27.8125C25.9375 56.25 24.0625 57.1875 23.125 58.4375L10.9375 73.125C10 74.375 9.375 75.9375 9.375 77.1875V84.375C9.375 87.8125 12.1875 90.625 15.625 90.625H84.375C87.8125 90.625 90.625 87.8125 90.625 84.375V77.1875C90.625 75.9375 90 74.375 89.0625 73.125Z" stroke="#FA6223" stroke-width="2" stroke-miterlimit="10" stroke-linecap="round" stroke-linejoin="round"/>
</svg>
