<svg width="100" height="100" viewBox="0 0 100 100" fill="none" xmlns="http://www.w3.org/2000/svg">
<g clip-path="url(#clip0_73_207)">
<path d="M50 34C61.6032 34 72.7312 38.6094 80.9359 46.8141C89.1406 55.0188 93.75 66.1468 93.75 77.75V81.9167H6.25V77.75C6.25 66.1468 10.8594 55.0188 19.0641 46.8141C27.2688 38.6094 38.3968 34 50 34Z" stroke="#FA6233" stroke-width="3" stroke-miterlimit="10"/>
<path d="M30.125 65.7917C32.3111 65.7917 34.0834 64.0195 34.0834 61.8333C34.0834 59.6472 32.3111 57.875 30.125 57.875C27.9389 57.875 26.1667 59.6472 26.1667 61.8333C26.1667 64.0195 27.9389 65.7917 30.125 65.7917Z" fill="#FA6233" stroke="#FA6233" stroke-width="4.16667"/>
<path d="M69.875 65.7917C72.0612 65.7917 73.8334 64.0195 73.8334 61.8333C73.8334 59.6472 72.0612 57.875 69.875 57.875C67.6889 57.875 65.9167 59.6472 65.9167 61.8333C65.9167 64.0195 67.6889 65.7917 69.875 65.7917Z" fill="#FA6233" stroke="#FA6233" stroke-width="4.16667"/>
<path d="M14.2083 14.125L26.125 37.9583" stroke="#FA6233" stroke-width="3" stroke-miterlimit="10"/>
<path d="M85.7917 14.125L73.875 37.9583" stroke="#FA6233" stroke-width="3" stroke-miterlimit="10"/>
</g>
<defs>
<clipPath id="clip0_73_207">
<rect width="100" height="100" fill="white"/>
</clipPath>
</defs>
</svg>
