<svg width="100" height="100" viewBox="0 0 100 100" fill="none" xmlns="http://www.w3.org/2000/svg">
<g clip-path="url(#clip0_73_282)">
<path d="M98.4043 0H1.5957C0.714258 0 0 0.714258 0 1.5957V98.4043C0 99.2857 0.714258 100 1.5957 100H98.4043C99.2857 100 100 99.2857 100 98.4043V1.5957C100 0.714258 99.2857 0 98.4043 0ZM96.8086 96.8086H3.19141V3.19141H96.8086V96.8086Z" fill="#FA6223" stroke="#FA6223" stroke-width="0.002"/>
<path d="M9.0744 12.7661V13.2661H9.5744H89.9254H90.4254H90.4256L90.4254 12.7661H90.9254V9.57466V9.07466H90.4254H9.5744H9.0744V9.57466V12.7661ZM7.9787 6.88306H92.0213C92.6266 6.88306 93.117 7.37346 93.117 7.97876V14.3618C93.117 14.9671 92.6266 15.4575 92.0213 15.4575H7.9787C7.3734 15.4575 6.883 14.9671 6.883 14.3618V7.97876C6.883 7.37346 7.3734 6.88306 7.9787 6.88306Z" stroke="#FA6223"/>
<path d="M9.0744 90.4257V90.9257H9.5744H89.9254H90.4254H90.4256L90.4254 90.4257H90.9254V71.6314V71.1314H90.4254H9.5744H9.0744V71.6314V90.4257ZM7.9787 68.9399H92.0213C92.6266 68.9399 93.117 69.4303 93.117 70.0356V92.0214C93.117 92.6267 92.6266 93.1171 92.0213 93.1171H7.9787C7.3734 93.1171 6.883 92.6267 6.883 92.0214V70.0356C6.883 69.4303 7.3734 68.9399 7.9787 68.9399Z" stroke="#FA6223"/>
<path d="M58.3801 42.6939L59.2336 41.8403H58.0266H41.9732H40.7661L41.6197 42.6939L49.6464 50.7206L50 51.0742L50.3536 50.7206L58.3801 42.6939ZM40.07 44.2436L39.2164 43.3901V44.5972V60.6507V61.8578L40.07 61.0042L48.0967 52.9775L48.4503 52.6239L48.0967 52.2704L40.07 44.2436ZM41.6199 62.5542L40.7663 63.4077H41.9734H58.0267H59.2339L58.3803 62.5542L50.3535 54.5274L50 54.1738L49.6464 54.5274L41.6199 62.5542ZM59.93 61.0042L60.7836 61.8578V60.6507V44.5972V43.3901L59.93 44.2436L51.9033 52.2704L51.5497 52.6239L51.9033 52.9775L59.93 61.0042ZM38.1207 39.6489H61.8793C62.4848 39.6489 62.9752 40.1394 62.9752 40.7446V64.5036C62.9752 65.1089 62.4848 65.5993 61.8795 65.5993H38.1207C37.5154 65.5993 37.025 65.1089 37.025 64.5036V40.7446C37.025 40.1393 37.5154 39.6489 38.1207 39.6489Z" stroke="#FA6223"/>
<path d="M88.5221 42.6939L89.3757 41.8403H88.1685H72.115H70.9079L71.7615 42.6939L79.7882 50.7206L80.1418 51.0742L80.4953 50.7206L88.5221 42.6939ZM70.2116 44.2436L69.358 43.3901V44.5972V60.6507V61.8578L70.2116 61.0042L78.2383 52.9775L78.5919 52.6239L78.2383 52.2704L70.2116 44.2436ZM71.7613 62.5542L70.9077 63.4077H72.1148H88.1685H89.3757L88.5221 62.5542L80.4953 54.5274L80.1418 54.1739L79.7882 54.5274L71.7613 62.5542ZM90.072 61.0042L90.9256 61.8578V60.6507V44.5972V43.3901L90.072 44.2436L82.0453 52.2704L81.6917 52.6239L82.0453 52.9775L90.072 61.0042ZM68.2623 39.6489H92.0213C92.6266 39.6489 93.117 40.1393 93.117 40.7446V64.5036C93.117 65.1089 92.6266 65.5993 92.0213 65.5993H68.2623C67.657 65.5993 67.1666 65.1089 67.1666 64.5036V40.7446C67.1666 40.1393 67.657 39.6489 68.2623 39.6489Z" stroke="#FA6223"/>
<path d="M28.2385 42.6939L29.0921 41.8403H27.8849H11.8314H10.6243L11.4779 42.6939L19.5046 50.7206L19.8582 51.0742L20.2117 50.7206L28.2385 42.6939ZM9.92795 44.2438L9.0744 43.3903V44.5974V60.6509V61.858L9.92796 61.0044L17.9547 52.9775L18.3083 52.6239L17.9547 52.2704L9.92795 44.2438ZM11.4777 62.5542L10.6241 63.4077H11.8312H27.8849H29.0921L28.2385 62.5542L20.2115 54.5274L19.858 54.1739L19.5044 54.5274L11.4777 62.5542ZM29.7884 61.0042L30.642 61.8578V60.6507V44.5972V43.3901L29.7884 44.2436L21.7617 52.2704L21.4081 52.6239L21.7617 52.9775L29.7884 61.0042ZM7.9787 39.6489H31.7377C32.343 39.6489 32.8334 40.1393 32.8334 40.7446V64.5036C32.8334 65.1089 32.343 65.5993 31.7377 65.5993H7.9787C7.3734 65.5993 6.883 65.1089 6.883 64.5036V40.7446C6.883 40.1393 7.3734 39.6489 7.9787 39.6489Z" stroke="#FA6223"/>
</g>
<defs>
<clipPath id="clip0_73_282">
<rect width="100" height="100" fill="white"/>
</clipPath>
</defs>
</svg>
