<svg width="100" height="100" viewBox="0 0 100 100" fill="none" xmlns="http://www.w3.org/2000/svg">
<g clip-path="url(#clip0_73_329)">
<path d="M1 87.8024V12.1978H99V87.8024H1Z" stroke="#FA6233" stroke-width="2"/>
<path d="M9.87501 17.4571C9.87501 18.144 9.31817 18.7009 8.63126 18.7009C7.94436 18.7009 7.38751 18.144 7.38751 17.4571C7.38751 16.7702 7.94436 16.2134 8.63126 16.2134C9.31817 16.2134 9.87501 16.7702 9.87501 17.4571Z" fill="white" stroke="#FA6233"/>
<path d="M15.1047 17.4571C15.1047 18.144 14.5478 18.7009 13.8609 18.7009C13.174 18.7009 12.6172 18.144 12.6172 17.4571C12.6172 16.7702 13.174 16.2134 13.8609 16.2134C14.5478 16.2134 15.1047 16.7702 15.1047 17.4571Z" fill="white" stroke="#FA6233"/>
<path d="M20.3328 17.4571C20.3328 18.144 19.776 18.7009 19.0891 18.7009C18.4022 18.7009 17.8453 18.144 17.8453 17.4571C17.8453 16.7702 18.4022 16.2134 19.0891 16.2134C19.776 16.2134 20.3328 16.7702 20.3328 17.4571Z" fill="white" stroke="#FA6233"/>
<path d="M89.4714 14.8977L86.3444 20.0196H31.3516L34.476 14.8977H89.4714Z" stroke="#FA6233"/>
<path d="M23.9812 41.0571L25.6344 47.4102C25.9938 48.804 26.3297 50.0946 26.5641 51.3883H26.6422C26.9266 50.1211 27.3375 48.779 27.7516 47.4368L29.7922 41.0571H31.7031L33.6406 47.3071C34.1094 48.804 34.4672 50.1196 34.7516 51.3883H34.8297C35.0719 50.018 35.3906 48.6618 35.7844 47.3258L37.5656 41.0493H39.8141L35.7844 53.5493H33.7172L31.8063 47.5836C31.3656 46.2336 30.9953 44.8633 30.6953 43.4758H30.6438C30.3453 44.8743 29.9656 46.254 29.5078 47.6086L27.4938 53.5461H25.4266L21.6562 41.0461L23.9812 41.0571Z" fill="#FA6233" stroke="#FA6233"/>
<path d="M43.2969 41.0571L44.95 47.4102C45.3094 48.804 45.6453 50.0946 45.8797 51.3883H45.9578C46.2422 50.1211 46.6531 48.779 47.0672 47.4368L49.1078 41.0571H51.0188L52.9563 47.3071C53.425 48.804 53.7828 50.1196 54.0672 51.3883H54.1453C54.3875 50.018 54.7063 48.6618 55.1 47.3258L56.8813 41.0493H59.1297L55.1 53.5493H53.0313L51.1203 47.5836C50.6797 46.2336 50.3094 44.8633 50.0094 43.4758H49.9578C49.6594 44.8743 49.2797 46.254 48.8219 47.6086L46.8078 53.5461H44.7406L40.9703 41.0461L43.2969 41.0571Z" fill="#FA6233" stroke="#FA6233"/>
<path d="M62.6109 41.0571L64.2641 47.4102C64.6234 48.804 64.9594 50.0946 65.1937 51.3883H65.2719C65.5562 50.1211 65.9672 48.779 66.3812 47.4368L68.4219 41.0571H70.3328L72.2703 47.3071C72.739 48.804 73.0969 50.1196 73.3812 51.3883H73.4594C73.7015 50.018 74.0203 48.6618 74.414 47.3258L76.1953 41.0493H78.4375L74.4078 53.5493H72.3437L70.4328 47.5836C69.9922 46.2336 69.6219 44.8633 69.3219 43.4758H69.2703C68.9719 44.8743 68.5922 46.254 68.1344 47.6086L66.1203 53.5461H64.0625L60.2922 41.0461L62.6109 41.0571Z" fill="#FA6233" stroke="#FA6233"/>
<path d="M96.4385 81.1373L93.3041 84.2717L100.632 91.6L103.767 88.4656L96.4385 81.1373Z" fill="white" stroke="#FA6233"/>
<path d="M90.0094 87.5703L88 76L99.5687 78.0109L90.0094 87.5703Z" fill="white" stroke="#FA6233"/>
<path d="M85.5702 35.8696H85.5687L14.5312 35.8696L14.5298 35.8696C13.1626 35.8735 12.0539 36.9822 12.05 38.3494H12.05V38.3509L12.05 56.2649L12.05 56.2664C12.0539 57.6336 13.1626 58.7423 14.5298 58.7462H14.5312L85.5687 58.7462L85.5702 58.7462C86.9374 58.7423 88.0461 57.6336 88.05 56.2664V56.2649V38.3509V38.3494C88.0461 36.9822 86.9374 35.8735 85.5702 35.8696ZM14.5317 35.3071H85.5685C87.2485 35.3086 88.6098 36.6706 88.6125 38.3517V56.2626C88.6098 57.9433 87.2487 59.3044 85.5679 59.3071H14.532C12.8511 59.3044 11.4904 57.9448 11.4875 56.2645V38.3513C11.4904 36.6709 12.8512 35.31 14.5317 35.3071Z" fill="white" stroke="#FA6233"/>
</g>
<defs>
<clipPath id="clip0_73_329">
<rect width="100" height="100" fill="white"/>
</clipPath>
</defs>
</svg>
