<svg width="100" height="100" viewBox="0 0 100 100" fill="none" xmlns="http://www.w3.org/2000/svg">
<g clip-path="url(#clip0_73_181)">
<path d="M61.2903 83.871H3.22581V12.9032H61.2903H62.9032H64.5161V4.83871C64.5161 2.17097 62.3452 0 59.6774 0H4.83871C2.17097 0 0 2.17097 0 4.83871V95.1613C0 97.829 2.17097 100 4.83871 100H59.6774C62.3452 100 64.5161 97.829 64.5161 95.1613V83.871H62.9032H61.2903ZM3.22581 4.83871C3.22581 3.94839 3.94839 3.22581 4.83871 3.22581H59.6774C60.5677 3.22581 61.2903 3.94839 61.2903 4.83871V9.67742H3.22581V4.83871ZM61.2903 95.1613C61.2903 96.0516 60.5677 96.7742 59.6774 96.7742H4.83871C3.94839 96.7742 3.22581 96.0516 3.22581 95.1613V87.0968H61.2903V95.1613Z" fill="#FA6233" stroke="#FA6233" stroke-width="0.00496"/>
<path d="M38.7097 90.3225H25.8065V93.5483H38.7097V90.3225Z" fill="#FA6233" stroke="#FA6233" stroke-width="0.00496"/>
<path d="M56.4516 32.2582C56.4516 23.3646 49.2161 16.1292 40.3226 16.1292C31.429 16.1292 24.1935 23.3646 24.1935 32.2582C24.1935 41.1517 31.429 48.3872 40.3226 48.3872C49.2161 48.3872 56.4516 41.1517 56.4516 32.2582ZM27.4193 32.2582C27.4193 25.1437 33.2081 19.355 40.3226 19.355C47.4371 19.355 53.2258 25.1437 53.2258 32.2582C53.2258 39.3727 47.4371 45.1614 40.3226 45.1614C33.2081 45.1614 27.4193 39.3727 27.4193 32.2582Z" fill="#FA6233" stroke="#FA6233" stroke-width="0.00496"/>
<path d="M93.5484 16.1292H53.2258V19.355H93.5484V16.1292Z" fill="#FA6233" stroke="#FA6233" stroke-width="0.00496"/>
<path d="M100 16.1292H96.7742V19.355H100V16.1292Z" fill="#FA6233" stroke="#FA6233" stroke-width="0.00496"/>
<path d="M90.3226 45.1614H53.2258V48.3872H90.3226V45.1614Z" fill="#FA6233" stroke="#FA6233" stroke-width="0.00496"/>
<path d="M96.7742 45.1614H93.5484V48.3872H96.7742V45.1614Z" fill="#FA6233" stroke="#FA6233" stroke-width="0.00496"/>
<path d="M90.3226 25.8064H59.6774V29.0322H90.3226V25.8064Z" fill="#FA6233" stroke="#FA6233" stroke-width="0.00496"/>
<path d="M96.7742 25.8064H93.5484V29.0322H96.7742V25.8064Z" fill="#FA6233" stroke="#FA6233" stroke-width="0.00496"/>
<path d="M93.5484 35.4839H62.9032V38.7097H93.5484V35.4839Z" fill="#FA6233" stroke="#FA6233" stroke-width="0.00496"/>
<path d="M100 35.4839H96.7742V38.7097H100V35.4839Z" fill="#FA6233" stroke="#FA6233" stroke-width="0.00496"/>
<path d="M41.9355 43.5484V40.3226C44.6032 40.3226 46.7742 38.1516 46.7742 35.4839C46.7742 32.8162 44.6032 30.6452 41.9355 30.6452H38.7097C37.8194 30.6452 37.0968 29.9226 37.0968 29.0323C37.0968 28.142 37.8194 27.4194 38.7097 27.4194H41.9355C42.8258 27.4194 43.5484 28.142 43.5484 29.0323H46.7742C46.7742 26.3645 44.6032 24.1936 41.9355 24.1936V20.9678H38.7097V24.1936C36.0419 24.1936 33.871 26.3645 33.871 29.0323C33.871 31.7 36.0419 33.871 38.7097 33.871H41.9355C42.8258 33.871 43.5484 34.5936 43.5484 35.4839C43.5484 36.3742 42.8258 37.0968 41.9355 37.0968H38.7097C37.8194 37.0968 37.0968 36.3742 37.0968 35.4839H33.871C33.871 38.1516 36.0419 40.3226 38.7097 40.3226V43.5484H41.9355Z" fill="#FA6233" stroke="#FA6233" stroke-width="0.00496"/>
<path d="M77.4194 64.5161H96.65L94.0484 71.0177C93.8823 71.0015 93.7194 70.9677 93.5484 70.9677C91.4484 70.9677 89.6742 72.3209 89.0065 74.1935H81.9597C81.3629 72.5177 79.8774 71.279 78.0645 71.0338L73.7436 58.0645H67.7419V61.2903H71.4177L74.8887 71.7016C73.5097 72.5548 72.5807 74.0693 72.5807 75.8064C72.5807 78.4741 74.7516 80.6451 77.4194 80.6451C79.5194 80.6451 81.2936 79.2919 81.9613 77.4193H89.0081C89.6758 79.2919 91.45 80.6451 93.55 80.6451C96.2177 80.6451 98.3887 78.4741 98.3887 75.8064C98.3887 74.4757 97.8484 73.2693 96.9758 72.3935L100 64.8257V61.2903H77.4194V64.5161ZM77.4194 77.4193C76.529 77.4193 75.8065 76.6967 75.8065 75.8064C75.8065 75.2435 76.1129 74.7725 76.55 74.4838L77.4194 74.1935C78.3097 74.1935 79.0323 74.9161 79.0323 75.8064C79.0323 76.6967 78.3097 77.4193 77.4194 77.4193ZM93.5484 77.4193C92.6581 77.4193 91.9355 76.6967 91.9355 75.8064C91.9355 74.9161 92.6581 74.1935 93.5484 74.1935C94.4387 74.1935 95.1613 74.9161 95.1613 75.8064C95.1613 76.6967 94.4387 77.4193 93.5484 77.4193Z" fill="#FA6233" stroke="#FA6233" stroke-width="0.00496"/>
<path d="M69.3549 77.4194H35.4839V80.6452H69.3549V77.4194Z" fill="#FA6233" stroke="#FA6233" stroke-width="0.00496"/>
<path d="M32.2581 77.4194H29.0323V80.6452H32.2581V77.4194Z" fill="#FA6233" stroke="#FA6233" stroke-width="0.00496"/>
<path d="M69.3548 67.7419H38.7097V70.9677H69.3548V67.7419Z" fill="#FA6233" stroke="#FA6233" stroke-width="0.00496"/>
<path d="M64.5161 58.0645H35.4839V61.2903H64.5161V58.0645Z" fill="#FA6233" stroke="#FA6233" stroke-width="0.00496"/>
<path d="M32.2581 58.0645H29.0323V61.2903H32.2581V58.0645Z" fill="#FA6233" stroke="#FA6233" stroke-width="0.00496"/>
<path d="M35.4839 67.7419H32.2581V70.9677H35.4839V67.7419Z" fill="#FA6233" stroke="#FA6233" stroke-width="0.00496"/>
</g>
<defs>
<clipPath id="clip0_73_181">
<rect width="100" height="100" fill="white"/>
</clipPath>
</defs>
</svg>
