<svg width="100" height="100" viewBox="0 0 100 100" fill="none" xmlns="http://www.w3.org/2000/svg">
<g clip-path="url(#clip0_73_116)">
<path d="M71.6666 23.6667H5C2.44273 23.6667 0.5 21.7239 0.5 19.1669V5.8335C0.5 3.27624 2.44274 1.3335 5 1.3335H71.6666C74.2239 1.3335 76.1666 3.27624 76.1666 5.8335V19.1667C76.1666 21.724 74.2239 23.6667 71.6666 23.6667ZM5 3.66689C4.38639 3.66689 3.83619 3.87359 3.43815 4.27164C3.0401 4.66969 2.8334 5.21988 2.8334 5.8335V19.1669C2.8334 19.7805 3.0401 20.3307 3.43815 20.7287C3.83619 21.1268 4.38639 21.3335 5 21.3335H71.6666C72.2802 21.3335 72.8304 21.1268 73.2285 20.7287C73.6265 20.3307 73.8332 19.7805 73.8332 19.1669V5.8335C73.8332 5.21989 73.6265 4.66969 73.2285 4.27164C72.8304 3.87359 72.2802 3.66689 71.6666 3.66689H5Z" stroke="#FA6233"/>
<path d="M71.6666 48.6666H5C2.44274 48.6666 0.5 46.7239 0.5 44.1666V30.8333C0.5 28.276 2.44274 26.3333 5 26.3333H71.6666C74.2239 26.3333 76.1666 28.276 76.1666 30.8333V44.1666C76.1666 46.7239 74.2239 48.6666 71.6666 48.6666ZM5 28.6668C4.38639 28.6668 3.83619 28.8735 3.43815 29.2716C3.0401 29.6696 2.8334 30.2198 2.8334 30.8334V44.1668C2.8334 44.7805 3.0401 45.3307 3.43815 45.7287C3.83619 46.1267 4.38639 46.3334 5 46.3334H71.6666C72.2802 46.3334 72.8304 46.1267 73.2285 45.7287C73.6265 45.3307 73.8332 44.7805 73.8332 44.1668V30.8334C73.8332 30.2198 73.6265 29.6696 73.2285 29.2716C72.8304 28.8735 72.2802 28.6668 71.6666 28.6668H5Z" fill="#FA6233" stroke="#FA6233"/>
<path d="M23.3334 61.3335H23.8334V60.8335V55.8335C23.8334 53.2762 25.7762 51.3335 28.3334 51.3335H95C97.5573 51.3335 99.5 53.2763 99.5 55.8333V69.1667C99.5 71.724 97.5573 73.6667 95 73.6667H28.3334C25.7762 73.6667 23.8334 71.724 23.8334 69.1667V64.1667V63.6667H23.3334H13.3334C12.947 63.6667 12.6639 63.5401 12.4787 63.3548C12.2934 63.1696 12.1668 62.8865 12.1668 62.5001C12.1668 62.1137 12.2934 61.8306 12.4787 61.6454C12.6639 61.4601 12.947 61.3335 13.3334 61.3335H23.3334ZM26.6668 63.6667H26.1668V64.1667V69.1667C26.1668 69.7803 26.3735 70.3305 26.7716 70.7286C27.1696 71.1266 27.7198 71.3333 28.3334 71.3333H95C95.6136 71.3333 96.1638 71.1266 96.5619 70.7286C96.9599 70.3305 97.1666 69.7803 97.1666 69.1667V55.8331C97.1666 55.2195 96.9599 54.6693 96.5619 54.2712C96.1638 53.8732 95.6136 53.6665 95 53.6665H28.3332C27.7196 53.6665 27.1694 53.8732 26.7714 54.2713C26.3733 54.6693 26.1666 55.2195 26.1666 55.8331V60.8331V61.3331H26.6666H34.3332H35.5403L34.6868 60.4796L32.5202 58.313C32.5202 58.313 32.5202 58.313 32.5202 58.313C32.0488 57.8414 32.0489 57.158 32.5201 56.6867C32.9917 56.2153 33.6751 56.2153 34.1465 56.6867L38.8613 61.4015L38.9107 61.4509L38.9718 61.4849C39.2839 61.6585 39.5 61.9941 39.5 62.4999C39.5 63.0059 39.2838 63.3414 38.9719 63.5149L38.9108 63.5488L38.8613 63.5983L34.1465 68.3131L34.1464 68.3132C34.0093 68.4504 33.8921 68.5333 33.7762 68.5848C33.6625 68.6354 33.5251 68.6667 33.3334 68.6667C33.1417 68.6667 33.0044 68.6354 32.8907 68.5848C32.7748 68.5333 32.6576 68.4503 32.5204 68.3131C32.049 67.8416 32.0491 67.1581 32.5204 66.6869L34.687 64.5203L35.5405 63.6667H34.3334H26.6668Z" stroke="#FA6233"/>
<path d="M73.8334 94.1667V93.6667H73.8332V80.8333C73.8332 80.2197 73.6265 79.6695 73.2285 79.2714C72.8304 78.8734 72.2802 78.6667 71.6666 78.6667H5C4.38639 78.6667 3.83619 78.8734 3.43815 79.2714C3.0401 79.6695 2.8334 80.2197 2.8334 80.8333V94.1667C2.8334 94.7803 3.0401 95.3305 3.43815 95.7286C3.83619 96.1266 4.38639 96.3333 5 96.3333H71.6668C72.2804 96.3333 72.8306 96.1266 73.2287 95.7286C73.6267 95.3305 73.8334 94.7803 73.8334 94.1667ZM5 76.3335H71.6666C74.2239 76.3335 76.1666 78.2762 76.1666 80.8335V94.1669C76.1666 96.7242 74.2239 98.6669 71.6666 98.6669H5C2.44274 98.6669 0.5 96.7242 0.5 94.1669V80.8335C0.5 78.2762 2.44274 76.3335 5 76.3335Z" fill="#FA6233" stroke="#FA6233"/>
<path d="M48.3334 61.3335H88.3334C88.7198 61.3335 89.0029 61.4601 89.1882 61.6453C89.3734 61.8306 89.5 62.1137 89.5 62.5001C89.5 62.8865 89.3734 63.1696 89.1882 63.3548C89.0029 63.5401 88.7198 63.6667 88.3334 63.6667H48.3334C47.947 63.6667 47.6639 63.5401 47.4787 63.3548C47.2934 63.1696 47.1668 62.8865 47.1668 62.5001C47.1668 62.1137 47.2934 61.8306 47.4787 61.6453C47.6639 61.4601 47.947 61.3335 48.3334 61.3335Z" fill="#FA6233" stroke="#FA6233"/>
<path d="M65 38.6667H25C24.6136 38.6667 24.3305 38.5401 24.1452 38.3548C23.96 38.1696 23.8334 37.8865 23.8334 37.5001C23.8334 37.1137 23.96 36.8306 24.1452 36.6454C24.3305 36.4601 24.6136 36.3335 25 36.3335H65C65.3864 36.3335 65.6695 36.4601 65.8547 36.6454C66.04 36.8306 66.1666 37.1137 66.1666 37.5001C66.1666 37.8865 66.04 38.1696 65.8547 38.3548C65.6695 38.5401 65.3864 38.6667 65 38.6667Z" stroke="#FA6233"/>
<path d="M16.1668 37.5001C16.1668 39.0574 14.8907 40.3335 13.3334 40.3335C11.7761 40.3335 10.5 39.0574 10.5 37.5001C10.5 35.9429 11.7761 34.6667 13.3334 34.6667C14.8907 34.6667 16.1668 35.9429 16.1668 37.5001Z" stroke="#FA6233"/>
<path d="M65 13.6667H25C24.6136 13.6667 24.3305 13.5401 24.1452 13.3548C23.96 13.1696 23.8334 12.8865 23.8334 12.5001C23.8334 12.1137 23.96 11.8306 24.1452 11.6454C24.3305 11.4601 24.6136 11.3335 25 11.3335H65C65.3864 11.3335 65.6695 11.4601 65.8547 11.6454C66.04 11.8306 66.1666 12.1137 66.1666 12.5001C66.1666 12.8865 66.04 13.1696 65.8547 13.3548C65.6695 13.5401 65.3864 13.6667 65 13.6667Z" fill="#FA6233" stroke="#FA6233"/>
<path d="M16.1668 12.5001C16.1668 14.0574 14.8907 15.3335 13.3334 15.3335C11.7761 15.3335 10.5 14.0574 10.5 12.5001C10.5 10.9429 11.7761 9.66675 13.3334 9.66675C14.8907 9.66675 16.1668 10.9429 16.1668 12.5001Z" fill="#FA6233" stroke="#FA6233"/>
<path d="M25 86.3335H65C65.3864 86.3335 65.6695 86.4601 65.8547 86.6454C66.04 86.8306 66.1666 87.1137 66.1666 87.5001C66.1666 87.8865 66.04 88.1696 65.8547 88.3548C65.6695 88.5401 65.3864 88.6667 65 88.6667H25C24.6136 88.6667 24.3305 88.5401 24.1452 88.3548C23.96 88.1696 23.8334 87.8865 23.8334 87.5001C23.8334 87.1137 23.96 86.8306 24.1452 86.6453C24.3305 86.4601 24.6136 86.3335 25 86.3335Z" stroke="#FA6233"/>
<path d="M10.5 87.5001C10.5 85.9429 11.7761 84.6667 13.3334 84.6667C14.8905 84.6667 16.1668 85.9429 16.1668 87.5001C16.1668 89.0574 14.8907 90.3335 13.3334 90.3335C11.7761 90.3335 10.5 89.0574 10.5 87.5001Z" stroke="#FA6233"/>
</g>
<defs>
<clipPath id="clip0_73_116">
<rect width="100" height="100" fill="white"/>
</clipPath>
</defs>
</svg>
