<svg width="100" height="85" viewBox="0 0 100 85" fill="none" xmlns="http://www.w3.org/2000/svg">
<rect width="59.7015" height="59.7015" fill="white"/>
<path d="M26.7034 41.4385C27.7295 41.4851 28.778 41.5187 29.8396 41.5187C30.9123 41.5187 31.972 41.4963 33.0112 41.4385C31.972 42.7817 30.9459 43.9702 29.8601 45.1026L29.875 45.0877C28.7948 43.9683 27.7575 42.778 26.7799 41.5392L26.7034 41.4385ZM16.0728 39.9459C18.0933 40.459 20.5578 40.8955 23.0728 41.1642L23.3172 41.1847C24.8563 43.2985 26.4123 45.1586 28.0821 46.9086L28.0616 46.8862C25.6157 49.6157 22.3153 51.5336 18.5821 52.222L18.4795 52.237C18.472 52.237 18.4646 52.237 18.4571 52.237C17.9944 52.237 17.5578 52.1232 17.1754 51.9217L17.1903 51.9291C15.6381 51.0429 14.9646 47.653 15.4888 43.2967C15.6138 42.2239 15.819 41.0952 16.0709 39.9441L16.0728 39.9459ZM43.653 39.9217C43.8731 40.806 44.0802 41.9329 44.2276 43.0784L44.2444 43.2388C44.7799 47.5933 44.1194 50.9795 42.5802 51.8844C42.2369 52.0747 41.8265 52.1866 41.3899 52.1866C41.347 52.1866 41.3041 52.1847 41.2612 52.1829H41.2668C37.4366 51.4832 34.1381 49.5784 31.6978 46.8825L31.6847 46.8676C33.3246 45.1456 34.8694 43.2892 36.2854 41.3358L36.3937 41.1791C39.1474 40.8918 41.6157 40.4478 44.0205 39.8414L43.653 39.9198V39.9217ZM18.2537 32.959C18.7201 33.8732 19.209 34.7836 19.7463 35.6978C20.2823 36.607 20.8302 37.4951 21.3899 38.362C19.7705 38.125 18.2071 37.8265 16.7127 37.4627C17.1325 35.9944 17.6586 34.4739 18.2519 32.9553L18.2537 32.959ZM41.4403 32.9123C42.0578 34.4441 42.5821 35.972 43.0168 37.4534C41.5243 37.8191 39.9478 38.1288 38.3172 38.362C38.8769 37.487 39.4366 36.5858 39.9608 35.6623C40.4851 34.7538 40.9757 33.8247 41.444 32.9105L41.4403 32.9123ZM14.2146 22.9329C15.028 25.6903 15.9011 27.9963 16.9179 30.2202L16.778 29.8806C15.9086 31.7556 15.0485 34.0485 14.3433 36.4086L14.2463 36.7911C12.9291 36.3862 11.8694 35.9888 10.8377 35.5429L11.0522 35.625C7.01492 33.9067 4.40298 31.6474 4.40298 29.8564C4.40298 28.0653 7.01492 25.7948 11.0522 24.084C12.0317 23.6642 13.1063 23.2855 14.2146 22.9329ZM45.444 22.9235C46.5728 23.2724 47.6455 23.6623 48.6493 24.084C52.6866 25.8097 55.2985 28.0653 55.2985 29.8564C55.2873 31.6474 52.6754 33.9123 48.6381 35.6269C47.6586 36.0467 46.5858 36.4235 45.4795 36.7761C44.6586 34.0094 43.7854 31.7052 42.7724 29.4776L42.9142 29.8284C43.7799 27.9553 44.6418 25.6623 45.3451 23.3023L45.444 22.9179V22.9235ZM38.3022 21.3508C39.9235 21.5914 41.4851 21.8862 42.9795 22.2538C42.5597 23.7276 42.0354 25.2426 41.4403 26.7612C40.9739 25.8526 40.4851 24.9366 39.9478 24.0243C39.4235 23.1101 38.8638 22.2202 38.3041 21.3526L38.3022 21.3508ZM21.3769 21.3508C20.8172 22.2295 20.2575 23.1288 19.7351 24.056C19.2108 24.9646 18.7201 25.8788 18.2537 26.7929C17.6362 25.2631 17.1119 23.7388 16.6772 22.2538C18.1698 21.9049 19.7425 21.5933 21.375 21.3545L21.3769 21.3508ZM29.8507 20.7575C31.5765 20.7575 33.2948 20.8358 34.9851 20.9739C35.9316 22.3309 36.8507 23.7761 37.7425 25.3097C38.6095 26.8023 39.4005 28.3147 40.1157 29.847C39.3974 31.375 38.6101 32.9011 37.7537 34.3937C36.8675 35.9329 35.9515 37.3974 35.0019 38.7538C33.3041 38.9011 31.584 38.9814 29.8489 38.9814C28.1231 38.9814 26.4048 38.8993 24.7146 38.7649C23.7687 37.4086 22.8451 35.9571 21.9571 34.4291C21.0902 32.9366 20.2991 31.4242 19.584 29.8918C20.291 28.3601 21.0896 26.8302 21.9459 25.3358C22.8321 23.7967 23.7481 22.3377 24.6978 20.9814C26.3955 20.8321 28.1157 20.7538 29.8507 20.7538V20.7575ZM29.8153 14.6362C30.8974 15.7556 31.9347 16.9441 32.9104 18.1829L32.9851 18.2817C31.959 18.2351 30.9104 18.2034 29.8489 18.2034C28.7761 18.2034 27.7164 18.2258 26.6772 18.2817C27.7146 16.9385 28.7407 15.75 29.8284 14.6176L29.8134 14.6325L29.8153 14.6362ZM18.4328 7.52428C22.2631 8.22577 25.5597 10.1306 28.0019 12.8247L28.0149 12.8396C26.375 14.5635 24.8302 16.4198 23.4142 18.3769L23.306 18.5336C20.5541 18.8191 18.0858 19.2594 15.6828 19.8657L16.0485 19.7873C15.7873 18.6455 15.5933 17.5392 15.4571 16.4776C14.9216 12.1232 15.5821 8.73697 17.1213 7.83585C17.5056 7.65488 17.9552 7.54294 18.4291 7.52801H18.4347L18.4328 7.52428ZM41.2127 7.47764V7.49256C41.2369 7.49256 41.2649 7.4907 41.2948 7.4907C41.7407 7.4907 42.1604 7.60077 42.5299 7.7948L42.5149 7.78734C44.0672 8.67726 44.7407 12.0653 44.2164 16.4235C44.0914 17.4963 43.8862 18.6269 43.6343 19.7799C41.6101 19.2612 39.1455 18.8228 36.6306 18.556L36.3918 18.5355C34.8507 16.4198 33.2948 14.5597 31.625 12.8079L31.6474 12.8302C34.0933 10.1064 37.3881 8.18846 41.1138 7.49629L41.2183 7.4795L41.2127 7.47764ZM41.2239 4.93659C36.6679 5.62876 32.7239 7.84144 29.8433 11.0336L29.8284 11.0504C26.9272 7.8601 22.9832 5.66234 18.5392 4.99629L18.4347 4.98323C18.4104 4.98323 18.3806 4.98323 18.3507 4.98323C17.4347 4.98323 16.5746 5.22391 15.8302 5.64555L15.8563 5.63249C12.6511 7.48137 11.9328 13.2426 13.5877 20.472C6.49067 22.6642 1.875 26.1679 1.875 29.8601C1.875 33.5672 6.51493 37.0802 13.6325 39.2556C11.9907 46.5131 12.7239 52.2836 15.9366 54.1306C16.6418 54.5355 17.4888 54.7724 18.3899 54.7724C18.431 54.7724 18.472 54.7724 18.5112 54.7706H18.5056C23.0616 54.0784 27.0056 51.8638 29.8862 48.6698L29.9011 48.653C32.8022 51.8452 36.7463 54.0429 41.1903 54.709L41.2948 54.722C41.3228 54.722 41.3582 54.722 41.3918 54.722C42.3022 54.722 43.1586 54.4832 43.8993 54.0672L43.8731 54.0802C47.0765 52.2332 47.7966 46.472 46.1418 39.2407C53.2127 37.0672 57.8284 33.556 57.8284 29.8582C57.8284 26.1511 53.1884 22.6381 46.0709 20.4571C47.7127 13.2071 46.9795 7.431 43.7668 5.58212C43.0541 5.17353 42.1996 4.93286 41.2892 4.93286C41.2649 4.93286 41.2407 4.93286 41.2164 4.93286H41.2201L41.2239 4.93659ZM35.0504 29.8601C35.0504 32.7388 32.7164 35.0728 29.8377 35.0728C26.959 35.0728 24.625 32.7388 24.625 29.8601C24.625 26.9814 26.959 24.6474 29.8377 24.6474C31.278 24.6474 32.5802 25.2314 33.5243 26.1735C34.4683 27.1176 35.0504 28.4198 35.0504 29.8601Z" fill="#FA6233"/>
<path d="M73.1234 30.5972C72.4424 30.5972 71.7616 30.7642 71.1739 31.1L52.6848 41.773C51.4908 42.4633 50.7463 43.7703 50.7463 45.1509V64.5145C50.7463 65.9137 51.4908 67.2021 52.6848 67.8924L57.5385 70.6909C59.8892 71.8476 60.7275 71.846 61.7909 71.846C65.2797 71.846 67.275 69.7381 67.275 66.0814V46.1019C67.275 45.8034 67.0342 45.559 66.7357 45.559H64.4036C64.0864 45.559 63.8606 45.8034 63.8606 46.1019V66.0632C63.8606 67.7049 62.1649 69.309 59.4224 67.947L54.3464 65.0174C54.1599 64.9241 54.0476 64.7197 54.0476 64.5145V45.1691C54.0476 44.9452 54.1599 44.7563 54.3464 44.6444L72.8355 33.9751C73.0034 33.8631 73.2283 33.8631 73.4149 33.9751L91.904 44.6444C92.0906 44.7563 92.2028 44.9456 92.2028 45.1509V64.5145C92.2028 64.7197 92.0901 64.9241 91.9222 65.0174L73.4149 75.7085C73.247 75.8018 73.0034 75.8018 72.8355 75.7085L68.0766 72.8918C67.946 72.7985 67.7627 72.7807 67.6321 72.8554C66.3074 73.6016 66.0649 73.6943 64.8336 74.1234C64.535 74.2167 64.0683 74.4027 65.0012 74.9251L71.1739 78.5836C71.7709 78.9194 72.4445 79.1046 73.1161 79.1046C73.8064 79.1046 74.4759 78.9194 75.0729 78.5836L93.5838 67.8924C94.7779 67.2021 95.5224 65.9137 95.5224 64.5145V45.1691C95.5224 43.7698 94.7779 42.4815 93.5838 41.7912L75.0729 31.1C74.4852 30.7642 73.8044 30.5972 73.1234 30.5972ZM78.0973 45.5335C72.8175 45.5335 69.6654 47.7708 69.6654 51.5022C69.6654 55.5507 72.7968 56.6683 77.8714 57.1721C83.9348 57.7691 84.4012 58.6672 84.4012 59.8612C84.4012 61.9135 82.7436 62.7909 78.8443 62.7909C73.9376 62.7909 72.8548 61.5578 72.5003 59.1325C72.463 58.8713 72.2404 58.6843 71.9792 58.6843H69.5706C69.2721 58.6843 69.0495 58.9291 69.0495 59.209C69.0495 62.3247 70.7473 66.034 78.8443 66.034C84.7025 66.034 88.0597 63.7235 88.0597 59.6936C88.0597 55.7011 85.354 54.6356 79.6824 53.8707C73.9175 53.1244 73.3384 52.7325 73.3384 51.3892C73.3384 50.2698 73.8436 48.7984 78.0973 48.7984C81.8846 48.7984 83.3018 49.6167 83.8802 52.1726C83.9361 52.4152 84.14 52.6026 84.4012 52.6026H86.8099C86.9591 52.6026 87.0878 52.5287 87.1998 52.4168C87.293 52.3235 87.3496 52.1729 87.3309 52.005C86.9578 47.602 84.0302 45.5335 78.0973 45.5335Z" fill="#FA6233"/>
</svg>
