<svg width="100" height="100" viewBox="0 0 100 100" fill="none" xmlns="http://www.w3.org/2000/svg">
<g clip-path="url(#clip0_73_100)">
<path d="M50.8984 54.375L35.8984 97.9687C40.3906 99.2969 45.1172 100 50.0391 100C55.8594 100 61.4453 98.9844 66.6406 97.1484C66.5234 96.9141 66.3672 96.7187 66.2891 96.4844L50.8984 54.375Z" stroke="#FA6233" stroke-width="2"/>
<path d="M26.3463 92.9337C11.2282 84.602 1 68.466 1 50C1 43.781 2.16786 37.855 4.27441 32.3989L26.3463 92.9337Z" stroke="#FA6233" stroke-width="2"/>
<path d="M58.1616 27.5218C59.1839 27.4533 60.1216 27.3738 60.869 27.3043C61.3987 27.255 61.8339 27.2106 62.1372 27.1785C62.2889 27.1625 62.4076 27.1494 62.4889 27.1404L62.5819 27.13L62.6062 27.1272L62.6127 27.1264L62.6144 27.1262L62.6149 27.1262L62.6151 27.1262L62.5 26.1328L62.6152 27.1262L62.6223 27.1253L62.6293 27.1244C64.5866 26.8691 65.4747 25.2492 65.3623 23.795C65.3066 23.0754 65.0095 22.3471 64.4468 21.8042C63.8687 21.2463 63.0663 20.9396 62.1296 20.9939L62.12 20.9944L62.1104 20.9952L62.1875 21.9922L62.1104 20.9952L62.1102 20.9952L62.1092 20.9953L62.1049 20.9956L62.0879 20.9969L62.02 21.0021L61.7562 21.0218C61.5261 21.0388 61.1911 21.0631 60.7727 21.0923C59.9357 21.1507 58.7653 21.2285 57.4319 21.3064C54.7599 21.4624 51.4539 21.6172 48.8672 21.6172C46.4375 21.6172 43.1712 21.4625 40.4977 21.3064C39.1641 21.2285 37.9837 21.1506 37.1367 21.0922C36.7132 21.063 36.3733 21.0387 36.1394 21.0217L35.871 21.002L35.8018 20.9968L35.7844 20.9955L35.7801 20.9951L35.779 20.9951L35.7788 20.9951L35.7031 21.9922L35.7787 20.995L35.7699 20.9944L35.761 20.9939C34.8079 20.9386 34.0016 21.2699 33.4287 21.8465C32.8738 22.4051 32.5828 23.1464 32.5282 23.8701C32.4737 24.5931 32.65 25.3706 33.1251 26.0002C33.6112 26.6445 34.3607 27.0657 35.2987 27.129L35.2998 27.1291L35.3873 27.1396C35.4636 27.1486 35.575 27.1616 35.7169 27.1777C36.0006 27.2099 36.4065 27.2543 36.8971 27.3036C37.7191 27.3862 38.7828 27.4829 39.9106 27.5587L47.3782 47.9452L37.4959 77.5922L20.6613 27.5219C21.6837 27.4533 22.6215 27.3738 23.369 27.3043C23.8987 27.255 24.3339 27.2106 24.6372 27.1785C24.7889 27.1625 24.9076 27.1494 24.9888 27.1404L25.0819 27.13L25.1062 27.1272L25.1127 27.1264L25.1144 27.1262L25.1149 27.1262L25.1151 27.1262L25 26.1328L25.1152 27.1262L25.1223 27.1253L25.1293 27.1244C27.0866 26.8691 27.9747 25.2492 27.8623 23.795C27.8066 23.0754 27.5095 22.3472 26.9468 21.8042C26.3687 21.2463 25.5663 20.9396 24.6296 20.9939L24.62 20.9944L24.6104 20.9952L24.6875 21.9922L24.6104 20.9952L24.6102 20.9952L24.6092 20.9953L24.6049 20.9956L24.5879 20.9969L24.52 21.0021L24.2562 21.0218C24.0261 21.0388 23.6911 21.0631 23.2727 21.0923C22.4357 21.1507 21.2653 21.2285 19.9319 21.3064C17.2599 21.4624 13.9539 21.6172 11.3672 21.6172C10.9503 21.6172 10.5009 21.6093 10.0239 21.597C18.915 9.14744 33.5003 1 49.9609 1C61.8422 1 72.7239 5.22209 81.2154 12.2741C76.6794 13.2078 73.6875 17.4778 73.6875 21.9531C73.6875 26.0654 75.9019 29.6154 78.1917 33.2863C78.378 33.5849 78.5648 33.8843 78.7509 34.1849C80.6361 37.4564 82.75 41.5635 82.75 47.4609C82.75 51.5797 81.5479 56.8364 78.954 63.3405L78.9377 63.3812L78.9251 63.4232L74.8289 77.0558L58.1616 27.5218Z" stroke="#FA6233" stroke-width="2"/>
<path d="M93.8672 26.0156C94.1016 27.6172 94.2187 29.3359 94.2187 31.1719C94.2187 36.25 93.2812 41.9531 90.4297 49.0625L75.1562 93.2031C90 84.5312 100 68.4375 100 50C100 41.2891 97.7734 33.125 93.8672 26.0156Z" stroke="#FA6233" stroke-width="2"/>
</g>
<defs>
<clipPath id="clip0_73_100">
<rect width="100" height="100" fill="white"/>
</clipPath>
</defs>
</svg>
