<svg width="100" height="100" viewBox="0 0 100 100" fill="none" xmlns="http://www.w3.org/2000/svg">
<g clip-path="url(#clip0_73_83)">
<path d="M91.75 49.0469V38.4562C93.5469 37.9594 94.875 36.3281 94.875 34.3781C94.875 32.0344 92.9687 30.1281 90.625 30.1281C90.0281 30.1281 89.4625 30.2531 88.9469 30.475L81.5562 21.2375C82.0656 20.5375 82.375 19.6813 82.375 18.75C82.375 16.4062 80.4687 14.5 78.125 14.5C76.8719 14.5 75.7562 15.0531 74.9781 15.9187L63.5437 10.2C63.5969 9.93437 63.625 9.65938 63.625 9.375C63.625 7.03125 61.7187 5.125 59.375 5.125C57.4219 5.125 55.7906 6.45313 55.2937 8.25H41.5781C41.0812 6.45313 39.45 5.125 37.5 5.125C35.1562 5.125 33.25 7.03125 33.25 9.375C33.25 9.65938 33.2812 9.93437 33.3344 10.2L25.0219 14.3562C24.2437 13.4937 23.1281 12.9375 21.875 12.9375C19.5312 12.9375 17.625 14.8438 17.625 17.1875C17.625 18.0406 17.8812 18.8313 18.3156 19.4969L11.2437 27.4531C10.6781 27.1719 10.05 27 9.375 27C7.03125 27 5.125 28.9062 5.125 31.25C5.125 33.2031 6.45313 34.8312 8.25 35.3281V45.9188C6.45313 46.4156 5.125 48.0469 5.125 49.9969C5.125 52.3406 7.03125 54.2469 9.375 54.2469C11.0812 54.2469 12.5437 53.2313 13.2219 51.775L23.9219 53.5594C24.1437 55.7 25.9312 57.375 28.125 57.375C28.4094 57.375 28.6844 57.3438 28.95 57.2906L31.5437 62.475C30.6812 63.2563 30.125 64.3719 30.125 65.625C30.125 67.9688 32.0312 69.875 34.375 69.875C35.8437 69.875 37.1406 69.125 37.9062 67.9875L48.9 71.6531C48.8937 71.7281 48.875 71.8 48.875 71.875C48.875 73.8281 50.2031 75.4594 52 75.9563V86.5438C50.2031 87.0406 48.875 88.6719 48.875 90.625C48.875 92.9688 50.7812 94.875 53.125 94.875C55.4687 94.875 57.375 92.9688 57.375 90.625C57.375 88.675 56.0469 87.0406 54.25 86.5438V75.9531C56.0469 75.4563 57.375 73.825 57.375 71.8719C57.375 70.4594 56.675 69.2156 55.6125 68.4406L57.7438 62.7531L67.6281 65.5781C67.6281 65.5938 67.625 65.6094 67.625 65.625C67.625 67.575 68.9531 69.2094 70.75 69.7063V86.5469C68.9531 87.0438 67.625 88.675 67.625 90.6281C67.625 92.9719 69.5312 94.8781 71.875 94.8781C74.2188 94.8781 76.125 92.9719 76.125 90.6281C76.125 88.6781 74.7969 87.0438 73 86.5469V69.7063C74.7969 69.2094 76.125 67.5781 76.125 65.625C76.125 65.1594 76.0312 64.7188 75.8937 64.3L87.8562 56.3219C88.6031 56.9719 89.5625 57.375 90.625 57.375C92.9687 57.375 94.875 55.4688 94.875 53.125C94.875 51.175 93.5469 49.5437 91.75 49.0469ZM66.7312 46.6625C66.725 46.5219 66.7094 46.3812 66.6875 46.2438L76.2156 42.0094L86.5687 51.0687L66.7312 46.6625ZM62.5 48.875C61.3969 48.875 60.5 47.9781 60.5 46.875C60.5 45.7719 61.3969 44.875 62.5 44.875C63.6031 44.875 64.5 45.7719 64.5 46.875C64.5 47.9781 63.6031 48.875 62.5 48.875ZM62.5 42.625C60.1562 42.625 58.25 44.5312 58.25 46.875C58.25 48.2875 58.95 49.5312 60.0125 50.3031L56.3687 60.0219L50.425 58.325L45.8469 42.3062L62.9188 30.5687L64.8812 32.0969L74.3438 40.3781L65.7656 44.1906C64.9875 43.2437 63.8219 42.625 62.5 42.625ZM28.5344 48.9156L25.3812 30.7812L36.6687 29.6531V29.6406C37.2812 31.2344 38.8156 32.375 40.625 32.375C40.6406 32.375 40.6531 32.3719 40.6687 32.3719L43.2406 41.3687L30.8469 49.8875C30.2062 49.35 29.4125 49.0031 28.5344 48.9156ZM40.625 30.125C39.5219 30.125 38.625 29.2281 38.625 28.125C38.625 27.0219 39.5219 26.125 40.625 26.125C41.7281 26.125 42.625 27.0219 42.625 28.125C42.625 29.2281 41.7281 30.125 40.625 30.125ZM32.125 51.7406L43.8906 43.65L47.875 57.5969L32.3687 53.1656C32.3687 53.15 32.3719 53.1375 32.3719 53.1219C32.375 52.6375 32.275 52.1781 32.125 51.7406ZM75.4031 21.9875C76.1437 22.6094 77.0844 23 78.125 23C78.7219 23 79.2875 22.875 79.8031 22.6531L87.1937 31.8875C86.6844 32.5875 86.375 33.4437 86.375 34.375C86.375 34.5906 86.4062 34.7969 86.4375 35.0031L76.6125 39.3687L66.3156 30.3594L64.8656 29.2313L75.4031 21.9875ZM88.2844 49.5812L78.4781 41.0031L87.3562 37.0594C87.9062 37.725 88.6437 38.2188 89.5 38.4531V49.0438C89.0656 49.1656 88.6531 49.3406 88.2844 49.5812ZM92.625 34.375C92.625 35.4781 91.7281 36.375 90.625 36.375C89.5219 36.375 88.625 35.4781 88.625 34.375C88.625 33.2719 89.5219 32.375 90.625 32.375C91.7281 32.375 92.625 33.2719 92.625 34.375ZM78.125 16.75C79.2281 16.75 80.125 17.6469 80.125 18.75C80.125 19.8531 79.2281 20.75 78.125 20.75C77.0219 20.75 76.125 19.8531 76.125 18.75C76.125 17.6469 77.0219 16.75 78.125 16.75ZM59.375 7.375C60.4781 7.375 61.375 8.27188 61.375 9.375C61.375 10.4781 60.4781 11.375 59.375 11.375C58.2719 11.375 57.375 10.4781 57.375 9.375C57.375 8.27188 58.2719 7.375 59.375 7.375ZM59.375 13.625C60.6281 13.625 61.7437 13.0719 62.5219 12.2062L73.9562 17.925C73.9031 18.1906 73.875 18.4656 73.875 18.75C73.875 19.2375 73.975 19.6969 74.125 20.1344L63 27.7844L41.425 11.0031C41.4906 10.8438 41.5344 10.6719 41.5812 10.5H55.2969C55.7906 12.2969 57.4219 13.625 59.375 13.625ZM37.5 7.375C38.6031 7.375 39.5 8.27188 39.5 9.375C39.5 10.4781 38.6031 11.375 37.5 11.375C36.3969 11.375 35.5 10.4781 35.5 9.375C35.5 8.27188 36.3969 7.375 37.5 7.375ZM34.3531 12.2062C35.1312 13.0687 36.2469 13.625 37.5 13.625C38.45 13.625 39.3219 13.3 40.0312 12.7688L61.0562 29.1187L45.1969 40.0219L42.8312 31.7406C44.05 30.9937 44.875 29.6594 44.875 28.125C44.875 25.7812 42.9687 23.875 40.625 23.875C38.5219 23.875 36.7844 25.4125 36.4469 27.4219V27.4125L24.9937 28.5562L23.6812 21.0188C25.1219 20.3375 26.125 18.8813 26.125 17.1875C26.125 16.9031 26.0938 16.6281 26.0406 16.3625L34.3531 12.2062ZM13.3281 29.7219C13.2219 29.4469 13.0937 29.1844 12.9344 28.9406L20.0062 20.9844C20.4531 21.2063 20.9437 21.3438 21.4656 21.3969L22.75 28.7812L13.3281 29.7219ZM21.875 15.1875C22.9781 15.1875 23.875 16.0844 23.875 17.1875C23.875 18.2906 22.9781 19.1875 21.875 19.1875C20.7719 19.1875 19.875 18.2906 19.875 17.1875C19.875 16.0844 20.7719 15.1875 21.875 15.1875ZM7.375 31.25C7.375 30.1469 8.27187 29.25 9.375 29.25C10.4781 29.25 11.375 30.1469 11.375 31.25C11.375 32.3531 10.4781 33.25 9.375 33.25C8.27187 33.25 7.375 32.3531 7.375 31.25ZM9.375 52C8.27187 52 7.375 51.1031 7.375 50C7.375 48.8969 8.27187 48 9.375 48C10.4781 48 11.375 48.8969 11.375 50C11.375 51.1031 10.4781 52 9.375 52ZM24.2781 51.3438L13.5781 49.5594C13.3937 47.8062 12.1562 46.3781 10.4969 45.9188V35.3281C12.0687 34.8937 13.2719 33.5906 13.55 31.9625L23.1344 31.0031L26.3156 49.2938C25.4219 49.7188 24.7 50.4437 24.2781 51.3438ZM26.125 53.125C26.125 52.0219 27.0219 51.125 28.125 51.125C29.2281 51.125 30.125 52.0219 30.125 53.125C30.125 54.2281 29.2281 55.125 28.125 55.125C27.0219 55.125 26.125 54.2281 26.125 53.125ZM34.375 67.625C33.2719 67.625 32.375 66.7281 32.375 65.625C32.375 64.5219 33.2719 63.625 34.375 63.625C35.4781 63.625 36.375 64.5219 36.375 65.625C36.375 66.7281 35.4781 67.625 34.375 67.625ZM38.6031 65.8469C38.6062 65.7719 38.625 65.7 38.625 65.625C38.625 63.2812 36.7187 61.375 34.375 61.375C34.0906 61.375 33.8156 61.4062 33.55 61.4594L30.9562 56.275C31.2625 56 31.525 55.6844 31.7406 55.3312L48.6031 60.1469L50.9219 68.2594C50.3969 68.5813 49.9375 69.0031 49.5937 69.5156L38.6031 65.8469ZM55.125 90.625C55.125 91.7281 54.2281 92.625 53.125 92.625C52.0219 92.625 51.125 91.7281 51.125 90.625C51.125 89.5219 52.0219 88.625 53.125 88.625C54.2281 88.625 55.125 89.5219 55.125 90.625ZM53.125 73.875C52.0219 73.875 51.125 72.9781 51.125 71.875C51.125 70.7719 52.0219 69.875 53.125 69.875C54.2281 69.875 55.125 70.7719 55.125 71.875C55.125 72.9781 54.2281 73.875 53.125 73.875ZM53.5031 67.6625C53.375 67.65 53.2531 67.625 53.125 67.625C53.1094 67.625 53.0969 67.6281 53.0812 67.6281L51.15 60.8719L55.575 62.1344L53.5031 67.6625ZM58.5375 60.6438L62.1219 51.0844C62.25 51.0969 62.3719 51.1219 62.5 51.1219C64.1219 51.1219 65.5219 50.1969 66.2375 48.8562L86.3969 53.3344C86.4156 53.7219 86.4906 54.0938 86.6094 54.4469L74.6469 62.425C73.8969 61.7781 72.9375 61.375 71.875 61.375C70.3406 61.375 69.0062 62.2 68.2562 63.4219L58.5375 60.6438ZM73.875 90.625C73.875 91.7281 72.9781 92.625 71.875 92.625C70.7719 92.625 69.875 91.7281 69.875 90.625C69.875 89.5219 70.7719 88.625 71.875 88.625C72.9781 88.625 73.875 89.5219 73.875 90.625ZM71.875 67.625C70.7719 67.625 69.875 66.7281 69.875 65.625C69.875 64.5219 70.7719 63.625 71.875 63.625C72.9781 63.625 73.875 64.5219 73.875 65.625C73.875 66.7281 72.9781 67.625 71.875 67.625ZM90.625 55.125C89.5219 55.125 88.625 54.2281 88.625 53.125C88.625 52.0219 89.5219 51.125 90.625 51.125C91.7281 51.125 92.625 52.0219 92.625 53.125C92.625 54.2281 91.7281 55.125 90.625 55.125Z" fill="#FA6233"/>
</g>
<defs>
<clipPath id="clip0_73_83">
<rect width="100" height="100" fill="white"/>
</clipPath>
</defs>
</svg>
