<svg width="100" height="100" viewBox="0 0 100 100" fill="none" xmlns="http://www.w3.org/2000/svg">
<g clip-path="url(#clip0_73_91)">
<path d="M37.5 94.875C32.9062 94.875 28.5875 92.4812 26.0844 88.5906C17.8219 88.25 11.375 81.5812 11.375 73.4375C11.375 70.6281 12.1625 67.9031 13.6656 65.4875C8.36875 62.1469 5.125 56.3156 5.125 50C5.125 43.6844 8.36875 37.8562 13.6656 34.5094C12.1656 32.0969 11.375 29.375 11.375 26.5625C11.375 18.3437 17.9406 11.6281 26.1 11.3812C28.6094 7.50625 32.9187 5.125 37.5 5.125C45.0125 5.125 51.125 11.2375 51.125 18.75V33.25H78.125C80.95 33.25 83.25 30.95 83.25 28.125V22.85C81.4531 22.3562 80.125 20.7062 80.125 18.75C80.125 16.4062 82.0312 14.5 84.375 14.5C86.7188 14.5 88.625 16.4062 88.625 18.75C88.625 20.7031 87.2969 22.3531 85.5 22.85V28.125C85.5 32.1906 82.1906 35.5 78.125 35.5H51.125V42.625H86.5281C87.0219 40.825 88.675 39.5 90.6281 39.5C92.9719 39.5 94.8781 41.4062 94.8781 43.75C94.8781 46.0937 92.9719 48 90.6281 48C88.675 48 87.025 46.675 86.5281 44.875H51.125V55.125H86.5281C87.0219 53.3281 88.675 52 90.6281 52C92.9719 52 94.8781 53.9062 94.8781 56.25C94.8781 58.5937 92.9719 60.5 90.6281 60.5C88.675 60.5 87.025 59.1719 86.5281 57.375H51.125V64.4969H78.125C82.1937 64.4969 85.5 67.8062 85.5 71.8719V77.1469C87.2969 77.6406 88.625 79.2937 88.625 81.2469C88.625 83.5906 86.7188 85.4969 84.375 85.4969C82.0312 85.4969 80.125 83.5906 80.125 81.2469C80.125 79.2937 81.4531 77.6437 83.25 77.1469V71.875C83.25 69.05 80.9531 66.75 78.125 66.75H51.125V81.25C51.125 88.7625 45.0125 94.875 37.5 94.875ZM27.2531 86.3375L27.7 86.9187C29.7688 90.4906 33.4344 92.625 37.5 92.625C43.7719 92.625 48.875 87.5219 48.875 81.25V18.75C48.875 12.4781 43.7719 7.375 37.5 7.375C33.4344 7.375 29.7687 9.50937 27.6969 13.0812L27.3344 13.6406C26.5406 15.2156 26.125 16.9719 26.125 18.75C26.125 20.75 26.65 22.7156 27.6469 24.4375L25.7 25.5625C24.5063 23.5031 23.875 21.1437 23.875 18.75C23.875 17.0406 24.1969 15.35 24.8125 13.7719C18.4406 14.6687 13.625 20.0625 13.625 26.5625C13.625 29.3 14.5094 31.9437 16.1781 34.2062L16.9469 35.2469L15.8094 35.8625C10.6063 38.6781 7.375 44.0937 7.375 50C7.375 55.5781 10.2563 60.7187 14.9594 63.6406C17.8531 60.2125 22.0656 58.25 26.5625 58.25V60.5031C22.7938 60.5031 19.2625 62.1187 16.7969 64.9531L16.1781 65.7969C14.5094 68.0562 13.625 70.7 13.625 73.4375C13.625 80.5719 19.4281 86.375 26.5625 86.375L27.2531 86.3375ZM84.375 79.25C83.2719 79.25 82.375 80.1469 82.375 81.25C82.375 82.3531 83.2719 83.25 84.375 83.25C85.4781 83.25 86.375 82.3531 86.375 81.25C86.375 80.1469 85.4781 79.25 84.375 79.25ZM90.625 54.25C89.5219 54.25 88.625 55.1469 88.625 56.25C88.625 57.3531 89.5219 58.25 90.625 58.25C91.7281 58.25 92.625 57.3531 92.625 56.25C92.625 55.1469 91.7281 54.25 90.625 54.25ZM90.625 41.75C89.5219 41.75 88.625 42.6469 88.625 43.75C88.625 44.8531 89.5219 45.75 90.625 45.75C91.7281 45.75 92.625 44.8531 92.625 43.75C92.625 42.6469 91.7281 41.75 90.625 41.75ZM84.375 16.75C83.2719 16.75 82.375 17.6469 82.375 18.75C82.375 19.8531 83.2719 20.75 84.375 20.75C85.4781 20.75 86.375 19.8531 86.375 18.75C86.375 17.6469 85.4781 16.75 84.375 16.75ZM37.5 88.625V86.375C40.325 86.375 42.625 84.0781 42.625 81.25H44.875C44.875 85.3187 41.5656 88.625 37.5 88.625ZM28.125 82.375C23.1969 82.375 19.1875 78.3656 19.1875 73.4375H21.4375C21.4375 77.125 24.4375 80.125 28.125 80.125V82.375ZM37.5 76.125C33.4344 76.125 30.125 72.8156 30.125 68.75C30.125 64.6844 33.4344 61.375 37.5 61.375V63.6281C34.675 63.6281 32.375 65.925 32.375 68.7531C32.375 71.5812 34.675 73.8781 37.5 73.8781V76.125ZM19.7875 52.0844C18.3937 50.6906 17.625 48.8406 17.625 46.875C17.625 42.5312 20.6562 39.5 25 39.5C27.0031 39.5 28.8062 40.2437 30.2156 41.6531L28.6219 43.2437C27.6469 42.2656 26.3938 41.75 25 41.75C21.8875 41.75 19.875 43.7625 19.875 46.875C19.875 48.2406 20.4094 49.525 21.375 50.4937L19.7875 52.0844ZM37.5 40.1875V37.9375C40.325 37.9375 42.625 35.6375 42.625 32.8125C42.625 29.9875 40.325 27.6875 37.5 27.6875V25.4375C41.5656 25.4375 44.875 28.7469 44.875 32.8125C44.875 36.8781 41.5656 40.1875 37.5 40.1875ZM44.875 18.75H42.625C42.625 15.925 40.325 13.625 37.5 13.625C34.675 13.625 32.375 15.925 32.375 18.75H30.125C30.125 14.6844 33.4344 11.375 37.5 11.375C41.5656 11.375 44.875 14.6844 44.875 18.75Z" fill="#FA6233" stroke="#FA6233" stroke-width="0.001"/>
<path d="M100 0H0V100H100V0Z" stroke="#FA6233" stroke-width="0.001"/>
</g>
<defs>
<clipPath id="clip0_73_91">
<rect width="100" height="100" fill="white"/>
</clipPath>
</defs>
</svg>
