<svg width="100" height="110" viewBox="0 0 100 110" fill="none" xmlns="http://www.w3.org/2000/svg">
<g clip-path="url(#clip0_73_541)">
<path d="M33.4821 76.3394C31.4275 76.3394 29.7619 78.0049 29.7619 80.0596C29.7619 82.1143 31.4275 83.7798 33.4821 83.7798C35.5368 83.7798 37.2024 82.1143 37.2024 80.0596C37.2024 78.0049 35.5368 76.3394 33.4821 76.3394Z" fill="#FA6233" stroke="black" stroke-width="0.001"/>
<path d="M52.0833 80.0596C52.0833 78.0049 53.7489 76.3394 55.8036 76.3394C57.8582 76.3394 59.5238 78.0049 59.5238 80.0596C59.5238 82.1143 57.8582 83.7798 55.8036 83.7798C53.7489 83.7798 52.0833 82.1143 52.0833 80.0596Z" fill="#FA6233" stroke="black" stroke-width="0.001"/>
<path d="M41.9226 38.1414V37.5646L41.4233 37.2758C39.4957 36.1607 38.2024 34.079 38.2024 31.6963C38.2024 28.1393 41.0858 25.2559 44.6428 25.2559C48.1999 25.2559 51.0833 28.1393 51.0833 31.6963C51.0833 34.079 49.79 36.1607 47.8624 37.2758L47.3631 37.5646V38.1414V46.5773V47.5773H48.3631H66.9643C72.576 47.5773 77.125 52.1264 77.125 57.738V94.9404C77.125 100.552 72.5761 105.101 66.9643 105.101H22.3214C16.7098 105.101 12.1607 100.552 12.1607 94.9404V57.738C12.1607 52.1264 16.7098 47.5773 22.3214 47.5773H40.9226H41.9226V46.5773V38.1414ZM28.3571 53.5705L28.0807 53.0178H27.4627H22.3214C19.7145 53.0178 17.6012 55.1311 17.6012 57.738V94.9404C17.6012 97.5474 19.7145 99.6606 22.3214 99.6606H66.9643C69.5713 99.6606 71.6845 97.5474 71.6845 94.9404V57.738C71.6845 55.1311 69.5713 53.0178 66.9643 53.0178H61.8229H61.2049L60.9285 53.5705L55.5446 64.3384C54.4535 66.5205 52.2235 67.8987 49.7842 67.8987H39.5015C37.0621 67.8987 34.832 66.5205 33.7411 64.3384L32.8466 64.7856L33.7411 64.3384L28.3571 53.5705ZM49.7842 62.4582H50.4023L50.6786 61.9055L54.3989 54.465L55.1225 53.0178H53.5045H35.7814H34.1633L34.8869 54.465L38.607 61.9054L38.8834 62.4582H39.5015H49.7842Z" stroke="#FA6233" stroke-width="2"/>
<path d="M3.72024 72.6191C1.66561 72.6191 0 74.2847 0 76.3394V83.7799C0 85.8345 1.66561 87.5001 3.72024 87.5001C5.77485 87.5001 7.44048 85.8345 7.44048 83.7799V76.3394C7.44048 74.2847 5.77485 72.6191 3.72024 72.6191Z" fill="#FA6233" stroke="black" stroke-width="0.001"/>
<path d="M81.8452 76.3394C81.8452 74.2847 83.5108 72.6191 85.5655 72.6191C87.6202 72.6191 89.2857 74.2847 89.2857 76.3394V83.7799C89.2857 85.8345 87.6202 87.5001 85.5655 87.5001C83.5108 87.5001 81.8452 85.8345 81.8452 83.7799V76.3394Z" fill="#FA6233" stroke="black" stroke-width="0.001"/>
</g>
<path d="M79.2028 37.5743H72.5275C71.9188 37.5743 71.4282 37.0801 71.4282 36.4751V35.7024C71.4355 35.0383 71.4029 34.5718 71.333 34.3114C70.9581 32.9385 69.9661 31.7874 69.0055 30.6713C68.6885 30.306 68.3895 29.9577 68.1147 29.6069C66.7322 27.8483 65.9969 25.7414 65.9969 23.5066C65.9969 18.0512 70.4374 13.6143 75.8929 13.6143C81.3471 13.6143 85.7864 18.0512 85.7864 23.5066C85.7864 25.7426 85.0548 27.8519 83.6686 29.6093C83.4264 29.9203 83.1467 30.2458 82.855 30.5893C81.8714 31.7464 80.7734 33.0374 80.3949 34.4006C80.3286 34.6441 80.296 35.0817 80.3009 35.694V36.4727C80.3009 37.0802 79.8103 37.5743 79.2028 37.5743ZM73.6292 35.3734H78.1035C78.1155 34.5176 78.1987 34.0957 78.2747 33.8209C78.7845 31.9851 80.0477 30.4941 81.1627 29.1851C81.4556 28.8403 81.7123 28.539 81.9401 28.2521C83.0165 26.8828 83.5867 25.2447 83.5867 23.5078C83.5867 19.265 80.1369 15.8128 75.8941 15.8128C71.6512 15.8128 68.1991 19.265 68.1991 23.5078C68.1991 25.2411 68.768 26.8804 69.8456 28.2497C70.0999 28.5752 70.3784 28.8946 70.6737 29.2357C71.6898 30.4157 72.9494 31.8778 73.458 33.7353C73.5328 34.0258 73.6196 34.4681 73.6292 35.3734Z" fill="#FA6233" stroke="#FA6233" stroke-width="0.0004"/>
<path d="M79.2028 40.4854H72.5275C71.9188 40.4854 71.4282 39.9924 71.4282 39.3837C71.4282 38.7762 71.9188 38.2856 72.5275 38.2856H79.2028C79.8103 38.2856 80.3009 38.7762 80.3009 39.3837C80.3009 39.9924 79.8103 40.4854 79.2028 40.4854Z" fill="#FA6233" stroke="#FA6233" stroke-width="0.0004"/>
<path d="M77.5346 43.3924H74.1969C73.5882 43.3924 73.0952 42.8994 73.0952 42.2931C73.0952 41.6856 73.5882 41.1914 74.1969 41.1914H77.5346C78.1397 41.1914 78.6339 41.6856 78.6339 42.2931C78.6339 42.8994 78.1397 43.3924 77.5346 43.3924Z" fill="#FA6233" stroke="#FA6233" stroke-width="0.0004"/>
<path d="M93.4814 24.6073H89.0843C88.4768 24.6073 87.9826 24.1167 87.9826 23.508C87.9826 22.9005 88.4768 22.4087 89.0843 22.4087H93.4814C94.0889 22.4087 94.5795 22.9005 94.5795 23.508C94.5795 24.1167 94.0889 24.6073 93.4814 24.6073Z" fill="#FA6233" stroke="#FA6233" stroke-width="0.0004"/>
<path d="M62.7026 24.6073H58.3043C57.6968 24.6073 57.2062 24.1167 57.2062 23.508C57.2062 22.9005 57.6968 22.4087 58.3043 22.4087H62.7014C63.3089 22.4087 63.8031 22.9005 63.8031 23.508C63.8043 24.1167 63.3101 24.6073 62.7026 24.6073Z" fill="#FA6233" stroke="#FA6233" stroke-width="0.0004"/>
<path d="M75.8929 11.4194C75.2842 11.4194 74.7912 10.9288 74.7912 10.3201V5.92058C74.7912 5.31428 75.2842 4.82129 75.8929 4.82129C76.5016 4.82129 76.9922 5.31428 76.9922 5.92058V10.3189C76.9922 10.9276 76.5016 11.4194 75.8929 11.4194Z" fill="#FA6233" stroke="#FA6233" stroke-width="0.0004"/>
<path d="M88.3249 37.044C88.0453 37.044 87.7644 36.9367 87.5487 36.7209L84.4401 33.6111C84.0109 33.1832 84.0109 32.4853 84.4401 32.055C84.8704 31.6259 85.5659 31.6283 85.995 32.0574L89.1036 35.166C89.5339 35.5963 89.5339 36.2942 89.1036 36.7233C88.889 36.9391 88.6094 37.044 88.3249 37.044Z" fill="#FA6233" stroke="#FA6233" stroke-width="0.0004"/>
<path d="M66.5634 15.2825C66.2838 15.2825 66.0017 15.1752 65.7847 14.9594L62.6785 11.852C62.2482 11.4217 62.2482 10.7238 62.6785 10.2935C63.1089 9.8644 63.8043 9.8644 64.2334 10.2935L67.3421 13.4021C67.7724 13.8312 67.7724 14.5303 67.3421 14.9594C67.1275 15.1752 66.8467 15.2825 66.5634 15.2825Z" fill="#FA6233" stroke="#FA6233" stroke-width="0.0004"/>
<path d="M63.456 37.0442C63.1751 37.0442 62.8943 36.9393 62.6785 36.7236C62.2482 36.2945 62.2482 35.5966 62.6785 35.1663L65.7896 32.0552C66.2163 31.6261 66.9118 31.6261 67.3421 32.0552C67.7724 32.4855 67.7724 33.1834 67.3421 33.6138L64.2334 36.7236C64.0177 36.9381 63.738 37.0442 63.456 37.0442Z" fill="#FA6233" stroke="#FA6233" stroke-width="0.0004"/>
<path d="M85.2199 15.2827C84.9391 15.2827 84.6582 15.1755 84.4412 14.9597C84.0145 14.5306 84.0145 13.8339 84.4412 13.4048L87.5499 10.2962C87.9766 9.86708 88.6769 9.86467 89.1048 10.2938C89.5351 10.7241 89.5351 11.4196 89.1048 11.8499L85.9986 14.9573C85.784 15.1731 85.5032 15.2827 85.2199 15.2827Z" fill="#FA6233" stroke="#FA6233" stroke-width="0.0004"/>
<defs>
<clipPath id="clip0_73_541">
<rect width="89.2857" height="89.2857" fill="white" transform="translate(0 20.5356)"/>
</clipPath>
</defs>
</svg>
